<svg xmlns="http://www.w3.org/2000/svg" xmlns:xlink="http://www.w3.org/1999/xlink" viewBox="0 0 92.35 54.1"><defs><style>.cls-1{fill:none;}.cls-2{clip-path:url(#clip-path);}.cls-3{fill:#afaf8b;}</style><clipPath id="clip-path" transform="translate(-253.83 -1266.01)"><rect class="cls-1" width="600" height="3406.15"/></clipPath></defs><title>Recurso 1</title><g id="Capa_2" data-name="Capa 2"><g id="Capa_1-2" data-name="Capa 1"><g class="cls-2"><path class="cls-3" d="M305.2,1293c.05,0,.16.18.13.54a3.9,3.9,0,0,1-.43,1.43,13.62,13.62,0,0,1-3.22,4,25.15,25.15,0,0,1-6.13,4,33.61,33.61,0,0,1-8.14,2.63,42,42,0,0,1-8.75.74,35.26,35.26,0,0,1-8-1,26.44,26.44,0,0,1-9.28-4.17,20.38,20.38,0,0,1-2.77-2.41,16.56,16.56,0,0,1-3.41-5.2,12.4,12.4,0,0,1-.87-3.75,11.37,11.37,0,0,1,.52-4.14,14.23,14.23,0,0,1,5.09-6.76,24.7,24.7,0,0,1,7.15-3.68,37.7,37.7,0,0,1,6.62-1.51c3.91-.51,6.48-.25,6.47,0s-2.53.47-6.27,1.24-8.83,2.14-12.9,5.37a12.78,12.78,0,0,0-4.4,6,9.66,9.66,0,0,0,.33,6.63,14.93,14.93,0,0,0,3,4.62,16.85,16.85,0,0,0,2.5,2.18,24.52,24.52,0,0,0,8.63,3.86,34.9,34.9,0,0,0,7.63,1,43.37,43.37,0,0,0,8.4-.61,31,31,0,0,0,13.8-5.87,17,17,0,0,0,3.39-3.45,6.93,6.93,0,0,0,.68-1.15c.13-.28.16-.46.24-.46" transform="translate(-253.83 -1266.01)"/><path class="cls-3" d="M325.67,1270.53c.07-.11.83.2,2.12.86s3.1,1.65,5.22,3a42.37,42.37,0,0,1,6.89,5.35,23.46,23.46,0,0,1,5.78,8.57,8,8,0,0,1,.49,2.89,4.79,4.79,0,0,1-1.14,2.93,8.62,8.62,0,0,1-5.06,2.51,21.69,21.69,0,0,1-9.81-.48,34.08,34.08,0,0,1-7.14-2.86c-1.84-1-3.13-1.83-3.82-2.28a39.3,39.3,0,0,1-3.43-2.59,29.54,29.54,0,0,1-5-5.35,23.89,23.89,0,0,1-2.25-3.85,14.27,14.27,0,0,1-1.28-4.74,9,9,0,0,1,.92-5.17,6.32,6.32,0,0,1,4.42-3.17,11.43,11.43,0,0,1,5.11.41,40,40,0,0,1,4.38,1.65,55.87,55.87,0,0,1,7.21,3.69c4,2.44,6.2,4.68,6.06,4.83s-2.59-1.64-6.67-3.79a69,69,0,0,0-7.19-3.31,42.2,42.2,0,0,0-4.23-1.47,9.87,9.87,0,0,0-4.33-.3,4.57,4.57,0,0,0-3.18,2.32,7.45,7.45,0,0,0-.67,4.15,12.68,12.68,0,0,0,1.14,4.11,21.53,21.53,0,0,0,2.09,3.55,28.16,28.16,0,0,0,4.64,5,35.56,35.56,0,0,0,3.26,2.47,41.76,41.76,0,0,0,3.65,2.17,32.85,32.85,0,0,0,6.75,2.69,19.88,19.88,0,0,0,9,.48,6.91,6.91,0,0,0,4-1.87c.93-1,.89-2.56.37-4.07a22.69,22.69,0,0,0-5.22-8,47.54,47.54,0,0,0-6.47-5.44c-2-1.44-3.73-2.57-4.91-3.4s-1.82-1.34-1.75-1.47" transform="translate(-253.83 -1266.01)"/><path class="cls-3" d="M299.69,1279.6c-.15.23-1-.07-2.3-.6s-3-1.24-4.8-1.82a45.29,45.29,0,0,0-8.46-1.94,43.13,43.13,0,0,0-8.19-.18c-1.79.09-3.5.35-4.78.5s-2.14.25-2.21,0,.68-.73,1.94-1.2a24.5,24.5,0,0,1,4.88-1.06,35.47,35.47,0,0,1,8.58.07,37.23,37.23,0,0,1,8.83,2.13,27.06,27.06,0,0,1,4.77,2.39c1.19.8,1.88,1.45,1.74,1.69" transform="translate(-253.83 -1266.01)"/><path class="cls-3" d="M337.76,1295.58c-.23.14-.95-.65-2-1.89s-2.41-2.86-4-4.42a49.6,49.6,0,0,0-7.76-6.4,48.35,48.35,0,0,0-8.44-4.36c-1.91-.8-3.83-1.38-5.25-1.85s-2.37-.77-2.33-1,1.06-.35,2.6-.18a29.44,29.44,0,0,1,5.59,1.39,40,40,0,0,1,8.84,4.44c.23.14.65.41,1.2.81s1.26.86,2,1.48a39.78,39.78,0,0,1,4.82,4.46,31.52,31.52,0,0,1,3.7,4.92c.82,1.44,1.2,2.45,1,2.6" transform="translate(-253.83 -1266.01)"/><path class="cls-3" d="M317.54,1303.29c-.14.23-1.34-.28-3.08-1.24a42.55,42.55,0,0,1-6.19-4.17,25.5,25.5,0,0,1-5.45-6,20.9,20.9,0,0,1-2.1-4.43,16.44,16.44,0,0,1-.85-4.63,13.78,13.78,0,0,1,.38-3.74,14,14,0,0,1,1.6-3.75,20.49,20.49,0,0,1,4.82-5.2c1.48-1.14,2.54-1.73,2.68-1.56s-.63,1.15-1.88,2.46a26.41,26.41,0,0,0-4.11,5.19,12,12,0,0,0-1.62,6.53,15.49,15.49,0,0,0,.74,4.12,19.56,19.56,0,0,0,1.93,4,26.68,26.68,0,0,0,5,5.65c2,1.76,4.15,3.3,5.72,4.48s2.57,2,2.42,2.27" transform="translate(-253.83 -1266.01)"/><path class="cls-3" d="M344.82,1288.92c.09-.08.36,0,.66.43a3.74,3.74,0,0,1,.67,1.91,11.11,11.11,0,0,1-1.59,5.66,32,32,0,0,1-3.18,5.17,17.54,17.54,0,0,1-2.59,2.68,13.32,13.32,0,0,1-3,1.94,10.21,10.21,0,0,1-5.91.89,15.29,15.29,0,0,1-2.81-.84c-.83-.31-1.55-.58-2.18-.75-1.25-.37-2.1-.25-2.16-.5s.84-.82,2.37-.69,3.33.83,5,1A9.13,9.13,0,0,0,335,1305a12.09,12.09,0,0,0,2.64-1.66,16.45,16.45,0,0,0,2.3-2.42,38.37,38.37,0,0,0,3.11-4.84,12.72,12.72,0,0,0,1.91-4.82c.16-1.33-.35-2.17-.1-2.35" transform="translate(-253.83 -1266.01)"/><path class="cls-3" d="M301.35,1298.05c-.29-.08.27-1.67-.47-3.92a9.26,9.26,0,0,0-2-3.42,14,14,0,0,0-3.85-2.79,32.31,32.31,0,0,0-9.26-2.86,36.33,36.33,0,0,0-5.81-.37,37,37,0,0,0-5.53.62,34.87,34.87,0,0,0-8.66,2.93c-.7.36-1.41.75-2.07,1.13a16.12,16.12,0,0,0-1.81,1.26,10.51,10.51,0,0,0-2.5,2.83c-1.11,1.9-.67,3.44-.94,3.49-.07,0-.16,0-.26-.22a2.26,2.26,0,0,1-.29-.79,5.17,5.17,0,0,1,.41-3,10.38,10.38,0,0,1,2.58-3.46,15.41,15.41,0,0,1,1.93-1.49c.7-.45,1.41-.87,2.15-1.28a33.31,33.31,0,0,1,9.1-3.22,36.29,36.29,0,0,1,5.83-.63,35.72,35.72,0,0,1,6.15.37,31.47,31.47,0,0,1,9.8,3.16,14.45,14.45,0,0,1,4.19,3.31,9.45,9.45,0,0,1,2.05,4.14,6.64,6.64,0,0,1-.07,3.2c-.23.73-.52,1.08-.64,1" transform="translate(-253.83 -1266.01)"/><path class="cls-3" d="M307.88,1296.11c.12,0,.36.6.55,1.75a14.06,14.06,0,0,1-.21,4.85,18.91,18.91,0,0,1-2.7,6.43,22.1,22.1,0,0,1-5.64,5.88,25.77,25.77,0,0,1-7.54,3.65,34.4,34.4,0,0,1-7.53,1.34,49.08,49.08,0,0,1-9.47-.3,40.14,40.14,0,0,1-8.84-2,23.18,23.18,0,0,1-3.21-1.4,19.19,19.19,0,0,1-3.19-2.06,15.65,15.65,0,0,1-2.79-2.84,14.45,14.45,0,0,1-2-3.53,23,23,0,0,1-1.45-7.45,45.59,45.59,0,0,1,.2-6.38c.39-3.67.86-6,1.08-6s.23,2.43.13,6.06a58.18,58.18,0,0,0,.13,6.21,22.85,22.85,0,0,0,1.53,6.89,13.46,13.46,0,0,0,4.3,5.58,16.38,16.38,0,0,0,2.9,1.86,23.14,23.14,0,0,0,3,1.29,39.26,39.26,0,0,0,8.43,1.88,49.16,49.16,0,0,0,9.11.27,34.25,34.25,0,0,0,7.13-1.24,24.81,24.81,0,0,0,7.07-3.31,21.68,21.68,0,0,0,5.36-5.32,19.19,19.19,0,0,0,2.8-5.85c1.05-3.68.5-6.26.85-6.31" transform="translate(-253.83 -1266.01)"/><path class="cls-3" d="M320.57,1302.71c-.22-.16-.11-.6,0-1.2a3,3,0,0,0-.1-1.85,1,1,0,0,0-1.22-.39,1.73,1.73,0,0,0-.85.57,2.34,2.34,0,0,0-.42,1A5.78,5.78,0,0,0,318,1303c.16.81.38,1.66.44,2.33s0,1.14-.26,1.18-.59-.3-.9-.85a11.3,11.3,0,0,1-1-2.24,6.29,6.29,0,0,1-.23-2.91,4.19,4.19,0,0,1,.78-1.82,3.52,3.52,0,0,1,1.79-1.24,3,3,0,0,1,1.84,0,2.61,2.61,0,0,1,1.52,1.41,3.09,3.09,0,0,1,.15,1.8,3.62,3.62,0,0,1-.51,1.27c-.43.65-.9.9-1.12.74" transform="translate(-253.83 -1266.01)"/><path class="cls-3" d="M321.72,1302c-.11,0-.28,0-.39-.3a1.42,1.42,0,0,1,.07-1.13,2.26,2.26,0,0,1,3.2-1,3.11,3.11,0,0,1,1.41,3.25,3.9,3.9,0,0,1-.93,1.82,4.78,4.78,0,0,1-1.42,1.14,8.54,8.54,0,0,1-2.59.83c-1.73.28-3.34.42-3.44,0-.14-.61,1.4-1.2,3-1.67a10.4,10.4,0,0,0,2.08-.77,3.69,3.69,0,0,0,.93-.71,2.28,2.28,0,0,0,.49-1,1.54,1.54,0,0,0-.49-1.41.73.73,0,0,0-.59-.17,1.43,1.43,0,0,0-.66.3c-.36.26-.44.66-.71.77" transform="translate(-253.83 -1266.01)"/><path class="cls-3" d="M255.67,1292.38c-.08,0-.35-.65-.32-1.73a9.11,9.11,0,0,1,1.06-3.83,18.41,18.41,0,0,1,4.21-5.18,21.7,21.7,0,0,1,5.28-3.42c2.49-1.16,5.05-1.53,5.07-1.36s-2.4.8-4.78,2a23.64,23.64,0,0,0-5.08,3.34,19.72,19.72,0,0,0-4.08,5,10.18,10.18,0,0,0-1.19,3.54c-.14,1,0,1.67-.17,1.69" transform="translate(-253.83 -1266.01)"/><path class="cls-3" d="M301.17,1283.46c-.15.15-1.23-.85-2.5-1.73a21.58,21.58,0,0,0-6.1-3.09c-1.37-.47-2.72-.73-2.69-.92s1.44-.16,2.89.25a17.69,17.69,0,0,1,3.22,1.26,18.4,18.4,0,0,1,3.1,1.93c1.27,1,2.25,2.15,2.08,2.3" transform="translate(-253.83 -1266.01)"/><path class="cls-3" d="M257.44,1291.5c.21,0,.18.49.14.94s-.09.94-.1,1,0,.45,0,1-.06.84-.24.87-.4-.38-.46-.84a5,5,0,0,1,0-1,5.65,5.65,0,0,1,.15-1.11c.12-.47.33-.89.55-.83" transform="translate(-253.83 -1266.01)"/><path class="cls-3" d="M302.9,1297.11c-.22,0-.08-1.08-.16-2.16a11.37,11.37,0,0,0-.41-2.44,10.62,10.62,0,0,0-.91-2.15c-.47-.9-1.08-1.65-.95-1.78s1,.49,1.55,1.43a8.33,8.33,0,0,1,1,2.29,8.89,8.89,0,0,1,.41,2.63c0,1.17-.34,2.23-.55,2.18" transform="translate(-253.83 -1266.01)"/><path class="cls-3" d="M267.45,1307.18c-.06.2-1.56-.23-3-1a21.7,21.7,0,0,1-3.2-2,20.46,20.46,0,0,1-2.68-2.31c-1.08-1.1-1.9-2.29-1.76-2.4s1.14.89,2.25,1.9a29.37,29.37,0,0,0,2.63,2.21,30.21,30.21,0,0,0,3.09,2c1.39.78,2.78,1.38,2.7,1.59" transform="translate(-253.83 -1266.01)"/><path class="cls-3" d="M264.21,1307.19c-.06.2-1,0-2-.47a12.54,12.54,0,0,1-2.11-1.26,11.66,11.66,0,0,1-1.74-1.52c-.69-.73-1.18-1.54-1-1.64s.82.51,1.52,1.15a19.24,19.24,0,0,0,1.69,1.41,19.78,19.78,0,0,0,2,1.23c.89.5,1.79.88,1.72,1.1" transform="translate(-253.83 -1266.01)"/><path class="cls-3" d="M262.44,1308.07c-.07.2-.77,0-1.46-.27a9.1,9.1,0,0,1-1.5-.85,9.38,9.38,0,0,1-1.28-1c-.52-.49-.9-1-.77-1.16s.69.23,1.22.63,1.1.83,1.24.92.78.49,1.4.85,1.22.68,1.15.89" transform="translate(-253.83 -1266.01)"/><path class="cls-3" d="M325,1273.45c-.14.18-1.79-1-3.76-1.88a24.54,24.54,0,0,0-2.86-1.07c-.86-.25-1.54-.39-1.78-.44s-.89-.17-1.72-.27a23.47,23.47,0,0,0-2.87-.13,8,8,0,0,0-2.6.34c-.64.24-.95.59-1,.53s.12-.58.83-1a6.74,6.74,0,0,1,2.77-.6,18,18,0,0,1,3,.09c.87.1,1.53.23,1.78.28s1,.19,1.85.45a18.87,18.87,0,0,1,2.95,1.16c2,1,3.59,2.34,3.46,2.51" transform="translate(-253.83 -1266.01)"/><path class="cls-3" d="M336.44,1280.65c.13-.17,1.85,1.07,3.34,2.75a22.93,22.93,0,0,1,3,4.16,10.81,10.81,0,0,1,.77,1.7,5,5,0,0,1,.1,3.13,3.5,3.5,0,0,1-2,2.15,4.2,4.2,0,0,0-1.08.6,1.92,1.92,0,0,1,.89-1,3.36,3.36,0,0,0,1.52-1.93,4.47,4.47,0,0,0-.15-2.67,9.7,9.7,0,0,0-.71-1.58,27.94,27.94,0,0,0-2.86-4.06c-1.4-1.68-3-3-2.82-3.21" transform="translate(-253.83 -1266.01)"/><path class="cls-3" d="M341.57,1289.4c.17-.12.73.65.86,1.64a5.07,5.07,0,0,1-.19,2.2,4.77,4.77,0,0,1-1,1.82c-.6.71-1.42,1-1.49.87s.5-.66.95-1.31a5.59,5.59,0,0,0,.83-1.6,5.7,5.7,0,0,0,.21-1.9c0-.85-.37-1.6-.17-1.72" transform="translate(-253.83 -1266.01)"/><path class="cls-3" d="M328.25,1304.42c0-.22,1.37-.05,2.76-.24a12.59,12.59,0,0,0,3.1-.79,12.18,12.18,0,0,0,2.63-1.5c1.07-.76,1.87-1.73,2-1.61s-.5,1.27-1.6,2.16a10.37,10.37,0,0,1-2.78,1.64,10.79,10.79,0,0,1-3.31.8c-1.5.12-2.88-.25-2.83-.46" transform="translate(-253.83 -1266.01)"/><path class="cls-3" d="M330.3,1303.27c0-.22.66-.28,1.32-.44a11.67,11.67,0,0,0,1.49-.43,9.87,9.87,0,0,0,1.32-.64c.56-.31,1.06-.66,1.18-.53s-.23.71-.8,1.11a6.39,6.39,0,0,1-1.43.75,6,6,0,0,1-1.64.43c-.75.09-1.45,0-1.44-.25" transform="translate(-253.83 -1266.01)"/><path class="cls-3" d="M330.88,1302.38c-.14-.4,1-.72,1.11-.76s1.14-.44,1.26-.09-.88.74-1,.79-1.21.49-1.36.06" transform="translate(-253.83 -1266.01)"/><path class="cls-3" d="M305.2,1299.76c-.42.09-.58-1.16-.61-1.31s-.28-1.28.08-1.35.62,1.06.65,1.21.33,1.36-.12,1.45" transform="translate(-253.83 -1266.01)"/><path class="cls-3" d="M304,1299.49c-.15.15-.35.07-.47-.09a1.05,1.05,0,0,1-.17-.43,1,1,0,0,1,0-.43c.05-.18.19-.32.36-.26.45.16.34.47.37.54a.62.62,0,0,1-.09.67" transform="translate(-253.83 -1266.01)"/><path class="cls-3" d="M312.22,1283.39c-.08-.11,0-.32.22-.61a3.48,3.48,0,0,0,.6-1.09,1.11,1.11,0,0,0,0-.6.43.43,0,0,0-.29-.27,1.61,1.61,0,0,0-.72,0,6.05,6.05,0,0,0-1,.38,21.19,21.19,0,0,0-6.16,4.34c-.28.27-1,1-1.88,2s-1.94,2.3-3,3.53a3.55,3.55,0,0,0-.86,1.63c0,.38.12.61.61.8a6.62,6.62,0,0,1,1.36.57c.34.24.43.49.35.56s-.33.09-.62.09a10.89,10.89,0,0,1-1.39,0,2.17,2.17,0,0,1-1.18-.51,2,2,0,0,1-.67-1.48,4.57,4.57,0,0,1,1-2.66c1-1.33,2-2.65,2.94-3.7s1.68-1.83,2-2.12a25.2,25.2,0,0,1,2.29-2,16.76,16.76,0,0,1,4.52-2.6,3.87,3.87,0,0,1,3.06-.18,1.86,1.86,0,0,1,1,1.41,2.2,2.2,0,0,1-.25,1.34,2.74,2.74,0,0,1-1.27,1.16c-.35.16-.59.18-.68.07" transform="translate(-253.83 -1266.01)"/><path class="cls-3" d="M312.78,1283.34c-.15-.23.69-.83.79-2.08a2.18,2.18,0,0,0-2.73-2.28c-1.6.43-3.11,2.21-4.44,3.39l-2.67,2.5-2.54,2.38c-1.19,1.19-3,2.45-3.43,3.94a2.14,2.14,0,0,0,.25,2,3.32,3.32,0,0,0,1.71,1c1.28.37,2.25.45,2.24.7s-.92.61-2.49.48a4.19,4.19,0,0,1-2.63-1.2,3.34,3.34,0,0,1-.84-1.65,4.27,4.27,0,0,1,.08-1.85,6.7,6.7,0,0,1,1.8-2.89c.73-.74,1.4-1.34,2-1.93l2.55-2.38,2.67-2.51c.66-.61,1.35-1.28,2.19-2a7.41,7.41,0,0,1,3.14-1.73,3.92,3.92,0,0,1,2,.1,3.61,3.61,0,0,1,1.58,1.05,3.32,3.32,0,0,1,.76,3,2.94,2.94,0,0,1-1.19,1.73c-.43.26-.74.26-.8.14" transform="translate(-253.83 -1266.01)"/><path class="cls-3" d="M309.13,1278.6c.33.43-.88,1.63-2.21,2.84s-2.79,2.41-3.1,2.69-1.63,1.48-2.91,2.57-2.54,2.06-2.87,1.74.49-1.76,1.67-3a37.23,37.23,0,0,1,2.87-2.7c.31-.28,1.74-1.58,3.22-2.66s3-1.92,3.33-1.48" transform="translate(-253.83 -1266.01)"/><path class="cls-3" d="M315.79,1295.1a.75.75,0,0,1-1.29.07.79.79,0,0,1-.18-1.24c.78-1,1.25-.28,1.33-.21s.85.5.14,1.38" transform="translate(-253.83 -1266.01)"/><path class="cls-3" d="M323.73,1295.28a.84.84,0,0,1-.12-1.39.88.88,0,0,1,1.28-.4c1.05.69.34,1.31.28,1.41a.92.92,0,0,1-1.44.38" transform="translate(-253.83 -1266.01)"/><path class="cls-3" d="M330.33,1300.41c.4,1-.36,1.07-.44,1.11s-.69.33-1-.52c-.47-1.16.25-1.18.34-1.21s.71-.43,1.13.62" transform="translate(-253.83 -1266.01)"/><path class="cls-3" d="M292.48,1303.14c.06.1-.66.62-1.46,1.73-.4.55-.84,1.23-1.36,2a9.42,9.42,0,0,1-2,2.09,13,13,0,0,1-5.14,2.29,24.89,24.89,0,0,1-3.31.51c-.44,0-1.63.15-3.14.26a30,30,0,0,0-5.05.71,6.93,6.93,0,0,0-3.9,2.36,9.58,9.58,0,0,0-.93,1.84c-.11,0-.2-.94.54-2.11a5.6,5.6,0,0,1,1.64-1.66,8.87,8.87,0,0,1,2.46-1.1,28.28,28.28,0,0,1,5.18-.79c1.52-.11,2.69-.2,3.13-.25a25.81,25.81,0,0,0,3.21-.5,12.93,12.93,0,0,0,4.88-2.11c1.52-1.09,2.44-2.75,3.38-3.81s1.8-1.51,1.84-1.42" transform="translate(-253.83 -1266.01)"/><path class="cls-3" d="M294.09,1302.46a7.12,7.12,0,0,1-1.1,2.11,24,24,0,0,1-3.3,4.28,12.54,12.54,0,0,1-4.89,3.13,17.8,17.8,0,0,1-3.39.74c-.46.07-1.68.2-3.24.31a28.94,28.94,0,0,0-5.22.73,11.08,11.08,0,0,0-4.33,2.1c-1,.83-1.43,1.61-1.53,1.54s.2-.92,1.2-1.9a10.38,10.38,0,0,1,4.48-2.41,26.61,26.61,0,0,1,5.34-.8c1.56-.12,2.75-.23,3.2-.3a17.8,17.8,0,0,0,3.25-.72,12.28,12.28,0,0,0,4.64-2.92,32.28,32.28,0,0,0,3.39-4c.84-1.15,1.4-1.91,1.5-1.84" transform="translate(-253.83 -1266.01)"/><path class="cls-3" d="M307.5,1303.29c-.22,0-.26-1-.48-2.13a14.57,14.57,0,0,0-.69-2.41,13.72,13.72,0,0,0-1.1-2.1c-.53-.88-1.18-1.61-1-1.75s1,.46,1.62,1.36a9.93,9.93,0,0,1,1.2,2.21,10.44,10.44,0,0,1,.71,2.58c.16,1.16,0,2.26-.22,2.24" transform="translate(-253.83 -1266.01)"/><path class="cls-3" d="M307.75,1300.08c-.22,0-.43-.6-.72-1.25a12.79,12.79,0,0,0-.74-1.44,10.43,10.43,0,0,0-.9-1.23c-.41-.52-.86-1-.75-1.12s.75.13,1.26.64a6.56,6.56,0,0,1,1,1.31,7,7,0,0,1,.77,1.59c.24.73.28,1.46.06,1.5" transform="translate(-253.83 -1266.01)"/><path class="cls-3" d="M308.17,1299.17c-.39.19-1.25-1.75-1.37-2s-1-2-.68-2.16,1.23,1.6,1.35,1.83,1.1,2.11.7,2.31" transform="translate(-253.83 -1266.01)"/><path class="cls-3" d="M306.38,1296.53c-.36.24-.83-.62-.9-.72s-.59-.84-.28-1,.84.54.9.64.66.88.28,1.13" transform="translate(-253.83 -1266.01)"/><path class="cls-3" d="M305,1294.45c.43,0,.35.4.35.45s0,.43-.35.43-.4-.38-.4-.43a.37.37,0,0,1,.4-.45" transform="translate(-253.83 -1266.01)"/><path class="cls-3" d="M339.67,1281c-.15.15-1.89-1.39-3.82-2.91s-4.06-3-4.53-3.35-2.51-1.67-4.51-2.82-3.91-2.15-3.83-2.32,2.13.6,4.18,1.71,4.1,2.49,4.58,2.81a55,55,0,0,1,4.55,3.42c1.91,1.6,3.53,3.3,3.38,3.46" transform="translate(-253.83 -1266.01)"/><path class="cls-3" d="M254,1297.09c-.43,0,0-4.63.07-5.19s.36-4.86.72-4.83.06,4.32,0,4.88-.36,5.17-.81,5.14" transform="translate(-253.83 -1266.01)"/></g></g></g></svg>