<svg xmlns="http://www.w3.org/2000/svg" fill="#afaf8b" viewBox="0 0 96.73 61.52"><title>Recurso 1</title><g id="Capa_2" data-name="Capa 2"><g id="OBJECTS"><path d="M33.55,29.34a18.23,18.23,0,0,0,3,15.67C41.9,51.93,52,50.1,59.6,49c12.25-1.71,35.26-6,36.95-21.15,3.5-31.32-45-19.21-57.46-5.82a.34.34,0,0,0,.46.49A52.2,52.2,0,0,1,68.13,9.83c8.49-1,19.59-1.68,24.84,6.52C103,32,82.9,41.73,70.75,44.93A88.21,88.21,0,0,1,50.31,48c-10.49.2-18.09-7.92-16.21-18.57.06-.31-.46-.45-.55-.13Z"/><path d="M86.23,14.87C96.35,24.55,80.88,29.46,76.34,31c-2.23.78-4.5,1.47-6.76,2.17-5.38,1.68-26,8.71-27.61-1.31a.44.44,0,0,0-.87.09c.57,13.2,31.62,1.6,37.92-.69,6.48-2.36,16-10.48,7.5-16.76a.22.22,0,0,0-.29.33Z"/><path d="M49.14,27.05C59.5,20.86,76.83,15.51,88.8,19.89a.44.44,0,0,0,.34-.81c-7.13-3.47-15.9-.9-23.37.35-6.33,1.06-11.94,3.09-16.78,7.4-.11.1,0,.3.15.22Z"/><path d="M45.71,24c3.19-4.72,10.07-7,15.17-8.7,4.55-1.46,9.8-3,14.62-2.2.11,0,.16-.17,0-.2-5-1.38-10.82.37-15.53,1.95C54.93,16.59,48.38,19,45.25,23.68c-.2.31.26.64.46.34Z"/><path d="M3.79,25c9.05-15.69,47.69-1.65,54.13,11.13a.49.49,0,0,0,.92-.3c-1.52-9.82-22.62-15.46-31-17.1-8-1.56-20-2.53-24.36,6.1-.1.19.17.36.28.17Z"/><path d="M5.49,28.33C4.29,36,15,41.13,20.64,43.57c8.81,3.78,24,9.77,33.64,6.38a.63.63,0,0,0-.31-1.2c-8.58.8-16.59-.66-24.71-3.53C21.63,42.53,7.62,37.53,6.09,28.3a.3.3,0,0,0-.6,0Z"/><path d="M7.66,26.6c.07,0,.06-.11,0-.11s-.05.11,0,.11Z"/><path d="M8.67,36c4.21-9.29,11.62-8.12,20-6.87,7.32,1.09,14.62,2.94,20.21,8,.59.54,1.31-.39.77-.93-6.43-6.54-42.31-17.47-41.32-.32,0,.14.24.25.32.09Z"/><path d="M2.5,26.66c-8.42,15,6.15,24.25,18.37,29.85C32.31,61.76,56.78,67.15,60,48.79c.07-.4-.48-.66-.68-.27-6.73,13-17.61,13.18-30.68,9.67C21,56.15,12.74,52.39,6.69,47c-6.38-5.64-6-12.46-4-20.31,0-.09-.13-.15-.18-.07Z"/><path d="M7.12,26c8.45-10.5,42.34-2.26,47.3,9.94,0,.06.12,0,.09,0-3.44-9-16.83-12.36-25.16-14.09C23.83,20.68,9.13,17.92,7.06,26c0,0,0,.05.06,0Z"/><path d="M79.77,17.82a16.65,16.65,0,0,0,1.81-4.48c0-.1-.12-.19-.18-.08a17.3,17.3,0,0,0-1.85,4.47c0,.12.16.2.22.09Z"/><path d="M80.55,17.83a7.86,7.86,0,0,0,1.63-3.61.11.11,0,0,0-.21-.07c-.58,1.17-1,2.4-1.6,3.59-.05.11.11.17.18.09Z"/><path d="M81.45,18.48a21.57,21.57,0,0,0,2.61-4.75c0-.12-.1-.24-.19-.13a22,22,0,0,0-2.62,4.78.11.11,0,1,0,.2.1Z"/><path d="M82.76,18.39a25.7,25.7,0,0,0,2.27-4c.06-.15-.16-.23-.25-.11a27.16,27.16,0,0,0-2.24,4c-.06.13.15.25.22.12Z"/><path d="M84,18a7.81,7.81,0,0,0,1.89-2.54.13.13,0,0,0-.2-.14,7.78,7.78,0,0,0-1.9,2.56c-.08.13.12.21.21.12Z"/><path d="M85.15,18.79a17.54,17.54,0,0,0,2.58-3.26.14.14,0,0,0-.21-.18A13.25,13.25,0,0,0,85,18.68a.09.09,0,0,0,.14.11Z"/><path d="M86.58,19.32A4.62,4.62,0,0,0,88.23,17c0-.12-.15-.19-.22-.09a19.26,19.26,0,0,1-1.62,2.21c-.12.12.06.32.19.2Z"/><path d="M87.86,19.22c.56-.07,1.07-.36,1.11-1a.11.11,0,0,0-.18-.08,2.31,2.31,0,0,1-1,.84.1.1,0,0,0,0,.2Z"/><path d="M60.45,15.75c-.59,2-1.07,4.08-1.59,6.12a.09.09,0,1,0,.17.06,24.52,24.52,0,0,0,1.83-6.1c0-.23-.34-.3-.41-.08Z"/><path d="M62.74,15.05c-.56,1.75-1.51,3.7-1.59,5.55,0,.12.16.14.22,0,.9-1.61,1.14-3.76,1.6-5.53,0-.13-.19-.2-.23-.07Z"/><path d="M64.46,14.79c-.36.85-.63,1.74-.91,2.62a7.56,7.56,0,0,0-.53,2,.17.17,0,0,0,.32.1,8.74,8.74,0,0,0,.8-2.12c.26-.82.53-1.64.72-2.48a.21.21,0,0,0-.4-.13Z"/><path d="M66.8,13.15c-.44,1.16-.87,2.33-1.28,3.5a11.41,11.41,0,0,0-.88,3.1c0,.14.18.27.28.12a11.32,11.32,0,0,0,1.16-3.08c.37-1.17.71-2.35,1-3.53a.17.17,0,0,0-.32-.11Z"/><path d="M68.62,13.53a25.85,25.85,0,0,0-1.16,3.23,10.34,10.34,0,0,0-.75,2.9c0,.21.26.21.35.08a11.27,11.27,0,0,0,1.08-3,24.72,24.72,0,0,0,.8-3.07c0-.17-.23-.33-.32-.13Z"/><path d="M70.63,13.41a48.22,48.22,0,0,0-2.39,5.83.14.14,0,0,0,.26.11,52.29,52.29,0,0,0,2.38-5.85.13.13,0,0,0-.25-.09Z"/><path d="M72.23,13.4A19.29,19.29,0,0,0,71,16a7.65,7.65,0,0,0-.85,2.43.16.16,0,0,0,.28.12,7.78,7.78,0,0,0,1.09-2.31,21.4,21.4,0,0,0,1-2.75.15.15,0,0,0-.28-.1Z"/><path d="M73.68,13a22,22,0,0,0-2.18,5.32.16.16,0,0,0,.29.12A21.09,21.09,0,0,0,74,13.12c.05-.16-.2-.25-.28-.1Z"/><path d="M75.4,12.76c-.82,1.81-2.1,3.88-2.39,5.86,0,.13.17.26.27.13,1.17-1.62,1.72-4,2.4-5.86.07-.19-.2-.32-.28-.13Z"/><path d="M76.63,13.56a43.67,43.67,0,0,0-1.86,4.8c0,.13.17.18.23.07a45.7,45.7,0,0,0,2-4.71c.09-.22-.3-.39-.39-.16Z"/><path d="M78.62,12.75a33.29,33.29,0,0,0-2,5.05.14.14,0,0,0,.26.11,33.7,33.7,0,0,0,2.08-5c.07-.18-.23-.33-.31-.15Z"/><path d="M79.75,13.28A42.71,42.71,0,0,1,78,18a.19.19,0,0,0,.33.17,12.86,12.86,0,0,0,1.75-4.85.19.19,0,0,0-.37-.07Z"/><path d="M80.56,14.22c-.4,1.45-.89,2.87-1.41,4.28-.07.21.21.39.34.2a10,10,0,0,0,1.6-4.35c0-.3-.45-.43-.53-.13Z"/><path d="M39.1,40.75c.64,3.61,5.62,3.5,8.58,3.73a66.37,66.37,0,0,0,23.58-2.54s0-.09,0-.07a71.09,71.09,0,0,1-12.85,2.37c-4.22.32-17,1.43-19.1-3.57,0-.11-.21,0-.19.08Z"/><path d="M34.28,30.83a2.19,2.19,0,0,0-1,2,.16.16,0,0,0,.25.07,4.63,4.63,0,0,0,.91-2,.1.1,0,0,0-.15-.11Z"/><path d="M35.4,30.39c-.58,1.38-1,2.83-1.55,4.24,0,.08.09.17.14.08a10,10,0,0,0,1.65-4.26.12.12,0,0,0-.24-.06Z"/><path d="M37.15,30.45a44,44,0,0,0-2.94,7.26c0,.12.15.19.21.08a44,44,0,0,0,3-7.22c0-.14-.15-.26-.23-.12Z"/><path d="M38.8,31.16a43.78,43.78,0,0,0-1.91,4.71.12.12,0,0,0,.23.09,47,47,0,0,0,1.93-4.71c.06-.16-.18-.24-.25-.09Z"/><path d="M40,31.32a20,20,0,0,0-1.48,4.59c0,.11.14.2.19.08a19.87,19.87,0,0,0,1.49-4.59c0-.11-.14-.2-.2-.08Z"/><path d="M40.93,32.65a6.54,6.54,0,0,0-.46,3.15c0,.15.22.12.26,0a6.66,6.66,0,0,0,.4-3.15.1.1,0,0,0-.2,0Z"/><path d="M41.44,35.17c0,.62-.09,1.25-.11,1.88a.09.09,0,0,0,.18,0c.05-.63.09-1.26.13-1.89a.1.1,0,0,0-.2,0Z"/><path d="M94.31,17.56c1.69,5.68-2.87,11.44-6.83,15a.09.09,0,0,0,.11.14c4.12-2.94,9.46-9.86,6.89-15.19a.09.09,0,0,0-.17.07Z"/><path d="M95.47,23.9a25.45,25.45,0,0,1-6.83,11.39.1.1,0,0,0,.13.15,18.73,18.73,0,0,0,6.86-11.51.08.08,0,0,0-.16,0Z"/><path d="M90.71,25.48c-1.17,3-4.26,4.94-6.76,6.75-1.93,1.4-3.9,2.72-5.91,4-.07,0,0,.16.06.12C82.51,33.85,89,30.62,90.83,25.52c0-.07-.09-.11-.12,0Z"/><path d="M80.23,37.1a14.3,14.3,0,0,0,4.39-2.74s0-.14-.08-.09A15.29,15.29,0,0,1,80.18,37c-.07,0,0,.14,0,.11Z"/><path d="M83.4,38.09a12.88,12.88,0,0,0,4.41-2.74c.07-.05,0-.15-.09-.09a13.64,13.64,0,0,1-4.37,2.67.08.08,0,0,0,.05.16Z"/><path d="M42.74,22.15c5.28-4.85,12.13-7,18.5-10,.08,0,0-.14-.05-.11-6.11,2.48-14.14,4.86-18.56,10-.06.07,0,.19.11.12Z"/><path d="M6.3,28.6a31.82,31.82,0,0,0,1.16,4.09.11.11,0,0,0,.22-.06,30.38,30.38,0,0,0-1.22-4.08.08.08,0,0,0-.16.05Z"/><path d="M7.67,24.59a14.83,14.83,0,0,0,.73,6.8.08.08,0,0,0,.15-.05,15.58,15.58,0,0,1-.82-6.74s-.05-.05-.06,0Z"/><path d="M8.53,23.32A17.36,17.36,0,0,0,9,30.42a.1.1,0,0,0,.2-.05,29.77,29.77,0,0,1-.57-7,.07.07,0,1,0-.14,0Z"/><path d="M9.79,22.92a18.72,18.72,0,0,0,.29,7.53c0,.14.28.15.27,0A69.31,69.31,0,0,1,10,22.94a.1.1,0,0,0-.19,0Z"/><path d="M11.18,22.47a9.22,9.22,0,0,0,.19,7,.17.17,0,0,0,.32-.11,15,15,0,0,1-.2-6.8c0-.18-.24-.25-.31-.09Z"/><path d="M12.15,22.58a8.11,8.11,0,0,0,.12,5.58c.07.14.31.13.29-.06-.07-.79-.28-1.56-.34-2.35a15.61,15.61,0,0,1,.15-3.13.11.11,0,0,0-.22,0Z"/><path d="M13.38,21.44a16.5,16.5,0,0,0,.11,6.64.15.15,0,0,0,.29,0,39.77,39.77,0,0,1-.17-6.55c0-.14-.21-.19-.23,0Z"/><path d="M15.45,21a9.09,9.09,0,0,0-.3,6.43.15.15,0,0,0,.28-.09,12,12,0,0,1,.23-6.24c.05-.14-.15-.25-.21-.1Z"/><path d="M17.11,21.67a10.09,10.09,0,0,0,.19,5c.05.15.29.12.26-.05a13.91,13.91,0,0,1-.19-4.94c0-.15-.23-.2-.26,0Z"/><path d="M18.42,21.59a21.7,21.7,0,0,0,.07,5.52.15.15,0,1,0,.29,0c-.09-1.83-.14-3.66-.17-5.49,0-.12-.18-.14-.19,0Z"/><path d="M20.08,22.21a7.37,7.37,0,0,0,0,4.71.14.14,0,0,0,.27-.07,10,10,0,0,1,.06-4.55c.05-.17-.25-.26-.3-.09Z"/><path d="M21.1,22a11.5,11.5,0,0,0,.55,5.17.19.19,0,0,0,.37-.1A51,51,0,0,1,21.49,22a.2.2,0,0,0-.39,0Z"/><path d="M22.89,21.53c.08,2.1.12,4.2.34,6.29a.15.15,0,0,0,.3,0c0-2.1-.14-4.19-.28-6.28a.18.18,0,0,0-.36,0Z"/><path d="M24.71,22.89c.07,1.12.14,2.23.26,3.34,0,.15.26.14.26,0,0-1.12-.12-2.24-.21-3.37,0-.2-.32-.16-.31,0Z"/><path d="M27,21.86a11.28,11.28,0,0,0,.12,4.63c.05.18.36.17.35,0a25.51,25.51,0,0,1-.07-4.54.2.2,0,0,0-.4-.05Z"/><path d="M28.65,23.23a24.45,24.45,0,0,0,.15,3,.18.18,0,0,0,.36,0,24,24,0,0,0,0-2.94.25.25,0,0,0-.5,0Z"/><path d="M30.54,23.37a14.09,14.09,0,0,0,.54,2.81c.05.18.34.19.34,0A14.56,14.56,0,0,0,31,23.29a.26.26,0,0,0-.5.08Z"/><path d="M32.87,23.31a6.56,6.56,0,0,0,.32,3.43c.08.2.34.06.32-.12a13.47,13.47,0,0,1-.22-3.29c0-.27-.38-.29-.42,0Z"/><path d="M34.82,24.13A27.43,27.43,0,0,0,35.35,27a.15.15,0,0,0,.29-.06c-.09-.95-.26-1.86-.44-2.79-.05-.24-.42-.21-.38,0Z"/><path d="M36.38,28.29a3.18,3.18,0,0,0,.69,2.59c.11.12.3,0,.23-.17a4.48,4.48,0,0,1-.71-2.42.11.11,0,1,0-.21,0Z"/><path d="M38,28.37c.27,1.11.51,2.23.89,3.31.05.14.28.06.25-.09a32.5,32.5,0,0,0-.85-3.33c-.05-.19-.33-.08-.29.11Z"/><path d="M39.54,29.33c.3.81.6,1.6,1,2.38.08.16.32,0,.27-.13-.25-.82-.57-1.6-.89-2.39a.19.19,0,0,0-.36.14Z"/><path d="M41.61,30.53c.31.58.63,1.13,1,1.68a.15.15,0,0,0,.25-.15,16.41,16.41,0,0,0-.9-1.71c-.11-.19-.44,0-.34.18Z"/><path d="M43.32,31a5.05,5.05,0,0,0,.93,2,.27.27,0,0,0,.43-.2,5.38,5.38,0,0,0-.8-2.07.31.31,0,0,0-.56.25Z"/><path d="M45.59,32.29a9,9,0,0,0,1.14,2.57c.1.17.34,0,.28-.17a9.57,9.57,0,0,0-1.3-2.47.07.07,0,0,0-.12.07Z"/><path d="M47.74,30c.37,2.12.65,4.27,1.22,6.35a.1.1,0,0,0,.19,0c-.24-2.15-.76-4.26-1.2-6.37,0-.14-.23-.08-.21.05Z"/><path d="M50.08,31.3c.13,2,.26,4,.49,6,0,.14.23.14.22,0-.11-2-.32-4-.53-6a.09.09,0,0,0-.18,0Z"/><path d="M51.69,32.23a39.4,39.4,0,0,0,0,4.86c0,.13.23.14.24,0a39.61,39.61,0,0,0-.07-4.87c0-.1-.18-.1-.18,0Z"/><path d="M52.49,34.22a17,17,0,0,1,.29,3,.14.14,0,0,0,.28,0,7.8,7.8,0,0,0-.29-3.11.15.15,0,0,0-.28.08Z"/><path d="M53.89,35.43,54,36.78c0,.12.19.09.18,0l-.09-1.32c0-.14-.22-.14-.21,0Z"/><path d="M54.68,37s0,0,0,0,0,0,0,0Z"/><path d="M55.67,49.75l1-.26c.09,0,.06-.16,0-.13l-1,.31s0,.09,0,.08Z"/><path d="M60.56,48.75c-2.31.35-4.63.59-6.92,1a.13.13,0,0,0,0,.26c2.31-.28,4.59-.76,6.88-1.14.1,0,.1-.17,0-.16Z"/><path d="M56.14,49.47a10.68,10.68,0,0,1-8,3.52.07.07,0,0,0,0,.14,9.08,9.08,0,0,0,8.27-3.49c.1-.14-.12-.28-.24-.17Z"/><path d="M43.29,53c-1.57-.15-3.15-.34-4.72-.43a.06.06,0,1,0,0,.12c1.56.19,3.14.28,4.71.4.06,0,.08-.08,0-.09Z"/><path d="M45.07,51.82l4.17.1c.06,0,0-.09,0-.09l-4.17-.07a0,0,0,0,0,0,.06Z"/><path d="M44.43,55.9a20.2,20.2,0,0,0,8-2c.14-.07,0-.32-.11-.26a32.43,32.43,0,0,1-7.84,2.14c-.09,0-.09.16,0,.15Z"/><path d="M42.94,57.89A15.35,15.35,0,0,0,56.6,52.33c.09-.12-.1-.28-.21-.17A19.48,19.48,0,0,1,43,57.67c-.12,0-.15.2,0,.22Z"/><path d="M55.05,52.07c1.61-.55,3.62-1.85,4.27-3.49.08-.21-.2-.34-.35-.22-.64.55-1.11,1.28-1.74,1.86A15.83,15.83,0,0,1,55,51.91c-.1.06,0,.19.1.16Z"/><path d="M3.49,27.14A17.61,17.61,0,0,0,6,39.76c0,.07.15,0,.11,0A20.52,20.52,0,0,1,3.65,27.17a.08.08,0,0,0-.16,0Z"/><path d="M2.83,35.57A9.06,9.06,0,0,0,6.9,42.21c.09.06.2-.07.11-.14a9.76,9.76,0,0,1-4-6.52.09.09,0,0,0-.18,0Z"/><path d="M6,34.71a9.78,9.78,0,0,0,4,4.81.1.1,0,0,0,.11-.16,15,15,0,0,1-3.89-4.75c-.06-.11-.25,0-.2.1Z"/><path d="M35.25,14.85a20.56,20.56,0,0,1-7-1.51,10.18,10.18,0,0,1-2.94-1.75Q21.88,9,28.09,6.72a8.1,8.1,0,0,1,1.85,1.46c.37.34.79-.17.69-.54a5.7,5.7,0,0,1,.28-4.16C32.25.72,34,2,35,4a13.75,13.75,0,0,1,1.12,8c0,.12.18.15.2,0a15.91,15.91,0,0,0,.08-6.59C36,3.93,35.45,1,33.77.24,29.91-1.4,29,5.74,29.79,8l.78-.46C29.19,6,27.29,4.72,25.13,5.23A3.41,3.41,0,0,0,22.47,9.3c1,5.16,8.54,6.44,12.78,6.08.3,0,.31-.52,0-.53Z"/><path d="M41.34,8.57a16.5,16.5,0,0,1,0-2.63c0-.44.08-.88.15-1.31l.21-1.2c0-.76.46-.72,1.27.1.06.2.39.17.37,0a1.39,1.39,0,0,0-1.74-1.29.32.32,0,0,0-.23.19,15.25,15.25,0,0,0-.67,6.26c0,.37.69.31.66-.07Z"/><path d="M43.81,4.59c.37-1,1.26-2.83,2.64-2.49,2,.49.45,3.16-.19,4a6.34,6.34,0,0,1-2.18,1.77c-.74.37-1.57.48-2.29.87a.36.36,0,0,0,.08.65C44.75,10,48,6.28,48.2,3.65A2,2,0,0,0,45.81,1.3c-1.57.27-2.14,1.8-2.39,3.2a.2.2,0,0,0,.39.09Z"/></g></g></svg>